<svg width="146" height="265" viewBox="0 0 146 265" fill="none" xmlns="http://www.w3.org/2000/svg">
<path d="M80.2528 3.50069C47.2097 21.8311 -21.3198 54.081 39.9576 111.335C56.3943 126.692 72.9626 139.508 92.0056 135.733C107.405 132.679 94.9061 112.175 79.7266 107.719C60.1786 101.98 43.9513 103.485 27.8561 112.438C13.9957 120.149 4.94203 126.802 3.63356 143.81C1.37142 173.216 28.2632 199.046 58.693 219.622C81.9204 235.327 97.2352 245.352 117.789 252.916C121.125 254.143 142.31 261.139 141.565 261.181C128.402 261.925 108.18 259.682 94.1903 258.083C89.7447 257.646 86.5378 257.562 82.9188 257.166C80.2793 256.877 87.9306 257.481 89.7447 257.646C105.305 259.065 123.779 261.116 139.007 261.287C148.551 261.394 132.912 244.656 126.238 238.639C115.519 228.976 106.216 220.588 99.5374 213.102" stroke="#3366FF" stroke-width="7" stroke-linecap="round"/>
</svg>
