<svg width="326" height="326" viewBox="0 0 326 326" fill="none" xmlns="http://www.w3.org/2000/svg">
<g clip-path="url(#clip0_15_2466)">
<path d="M184.468 108.298C185.674 109.431 186.508 110.904 186.86 112.522C187.211 114.139 187.065 115.825 186.438 117.357L186.438 117.359L167.569 163.608L167.567 163.613C167.028 164.942 166.772 166.369 166.816 167.802C166.86 169.236 167.204 170.645 167.825 171.938L167.827 171.943L189.384 216.683L189.4 216.717C190.169 218.264 190.443 220.01 190.184 221.718C189.926 223.418 189.153 224.999 187.969 226.246C186.84 227.41 185.388 228.21 183.8 228.54C182.211 228.87 180.56 228.715 179.06 228.096L179.05 228.092L132.801 209.223L132.796 209.221C131.467 208.682 130.04 208.426 128.606 208.47C127.173 208.514 125.763 208.857 124.47 209.478L124.466 209.481L79.4526 231.17L79.4431 231.175C77.9579 231.897 76.2875 232.149 74.6556 231.896C73.0238 231.643 71.5078 230.899 70.3104 229.762L70.2876 229.74C69.0789 228.615 68.2417 227.148 67.8888 225.535C67.536 223.922 67.6844 222.239 68.3131 220.712L68.317 220.704L87.1855 174.455L87.1874 174.45C87.727 173.121 87.983 171.694 87.9387 170.26C87.8944 168.827 87.5506 167.418 86.93 166.125L86.9278 166.12L65.2379 121.106L65.2371 121.104C64.5175 119.613 64.2662 117.939 64.5174 116.303C64.7686 114.667 65.5101 113.146 66.6437 111.94C67.7772 110.734 69.2499 109.9 70.8669 109.549C72.4843 109.197 74.1707 109.344 75.7029 109.97L75.705 109.971L121.954 128.84L121.959 128.841C123.288 129.381 124.715 129.637 126.148 129.593C127.582 129.548 128.991 129.205 130.284 128.584L130.289 128.582L175.301 106.892L175.304 106.89C176.795 106.171 178.468 105.92 180.104 106.171C181.74 106.423 183.262 107.164 184.468 108.298ZM276.64 135.709C277.369 136.253 277.899 137.024 278.146 137.901C278.395 138.787 278.341 139.732 277.993 140.584L277.992 140.587L267.183 167.09L267.183 167.091C266.83 167.955 266.662 168.885 266.691 169.818C266.72 170.751 266.945 171.667 267.35 172.507L267.35 172.508L279.776 198.296C280.138 199.048 280.263 199.892 280.136 200.717C280.009 201.542 279.635 202.31 279.063 202.918C278.491 203.527 277.748 203.948 276.932 204.126C276.116 204.304 275.265 204.23 274.491 203.915L247.988 193.106C247.124 192.753 246.195 192.586 245.262 192.615C244.329 192.643 243.412 192.868 242.572 193.273L216.783 205.7C216.031 206.063 215.185 206.19 214.359 206.064C213.534 205.937 212.766 205.562 212.158 204.99C211.549 204.417 211.128 203.675 210.95 202.859C210.773 202.043 210.848 201.191 211.164 200.418L211.163 200.417L221.973 173.91C222.326 173.046 222.494 172.117 222.465 171.185C222.436 170.252 222.211 169.335 221.805 168.494L221.805 168.494L209.38 142.708L209.38 142.709C209.018 141.957 208.892 141.112 209.019 140.287C209.147 139.462 209.521 138.694 210.093 138.085C210.665 137.477 211.408 137.056 212.224 136.878C213.039 136.7 213.889 136.773 214.662 137.087L241.169 147.896C242.033 148.249 242.961 148.417 243.894 148.388C244.827 148.36 245.745 148.135 246.586 147.729L246.586 147.728L272.187 135.388L272.203 135.381L272.219 135.373C272.921 135.024 273.704 134.872 274.486 134.933C275.26 134.994 276.004 135.262 276.64 135.709ZM184.248 29.0956C184.874 29.5611 185.329 30.2208 185.541 30.9721C185.755 31.7289 185.711 32.5356 185.414 33.2641L185.414 33.2648L177.429 52.8358C177.092 53.6603 176.932 54.5466 176.96 55.437C176.987 56.3271 177.203 57.2014 177.59 58.0034L177.589 58.0041L186.767 77.0445L186.768 77.0438C187.077 77.6871 187.184 78.4095 187.075 79.1152C186.966 79.8212 186.646 80.478 186.157 80.9985C185.668 81.519 185.032 81.8789 184.334 82.0311C183.724 82.1642 183.09 82.1325 182.499 81.942L182.248 81.851L162.677 73.8672C161.853 73.5295 160.967 73.3688 160.076 73.3963C159.186 73.4239 158.311 73.6389 157.509 74.027L138.469 83.2044C137.826 83.5142 137.104 83.6217 136.398 83.5131C135.692 83.4043 135.035 83.0844 134.515 82.5951C133.994 82.1058 133.634 81.4699 133.482 80.772C133.349 80.1615 133.381 79.5282 133.571 78.9364L133.662 78.6856L141.643 59.123L141.644 59.1237C141.984 58.2971 142.145 57.4076 142.117 56.5142C142.089 55.6236 141.874 54.749 141.486 53.9471L141.487 53.9477L132.309 34.9073L132.309 34.908C132 34.2644 131.891 33.542 132 32.836C132.109 32.13 132.43 31.4738 132.919 30.9533C133.408 30.4329 134.043 30.0723 134.741 29.9201C135.439 29.768 136.166 29.8298 136.828 30.0988L136.828 30.1001L156.399 38.0832C157.223 38.4202 158.109 38.5809 158.999 38.5534C159.889 38.5259 160.764 38.3114 161.566 37.9241L180.437 28.8279L180.477 28.8087C181.075 28.5096 181.744 28.38 182.412 28.4325C183.072 28.4845 183.707 28.7134 184.248 29.0956Z" fill="#4271FF" stroke="black" stroke-width="6.13238"/>
</g>
<defs>
<clipPath id="clip0_15_2466">
<rect width="230.404" height="230.404" fill="white" transform="translate(157.808) rotate(43.2292)"/>
</clipPath>
</defs>
</svg>
