<svg width="132" height="133" viewBox="0 0 132 133" fill="none" xmlns="http://www.w3.org/2000/svg">
<path d="M123.112 5.28757C124.318 6.42124 125.152 7.89417 125.504 9.51149C125.855 11.1287 125.709 12.8147 125.082 14.3467L125.081 14.3482L106.213 60.5969L106.211 60.6018C105.671 61.9308 105.415 63.3579 105.459 64.7916C105.504 66.2253 105.847 67.6346 106.467 68.9278L106.47 68.9318L128.027 113.672L128.044 113.706C128.813 115.253 129.087 117 128.828 118.708C128.569 120.416 127.789 122.003 126.596 123.252C125.47 124.408 124.023 125.201 122.443 125.529C120.855 125.859 119.204 125.705 117.704 125.086L117.693 125.081L71.4444 106.212L71.4395 106.211C70.1105 105.671 68.6834 105.415 67.2497 105.459C65.8161 105.504 64.4075 105.847 63.1143 106.468L63.1095 106.47L18.0961 128.161L18.0865 128.165C16.6015 128.887 14.9314 129.138 13.2997 128.886C11.6679 128.633 10.1519 127.888 8.9545 126.751L8.93173 126.73C7.72285 125.605 6.88584 124.138 6.53293 122.525C6.18007 120.912 6.32791 119.23 6.95657 117.703L6.96041 117.693L25.8289 71.4442L25.8308 71.4394C26.3703 70.1103 26.6264 68.6832 26.5821 67.2495C26.5378 65.8158 26.194 64.4073 25.5734 63.1141L25.5712 63.1093L3.88131 18.0965L3.87984 18.0938L3.75092 17.8118C3.13143 16.394 2.92546 14.8274 3.1608 13.2938C3.41194 11.6579 4.15352 10.1362 5.28709 8.93021C6.42076 7.7242 7.89362 6.89019 9.51101 6.53843C11.1283 6.18671 12.8142 6.33346 14.3463 6.9596L14.3484 6.96022L60.5971 25.8287L60.602 25.8306C61.9311 26.3702 63.3581 26.6262 64.7918 26.5819C66.2256 26.5376 67.6347 26.1946 68.9279 25.5739L68.932 25.571L113.946 3.88179L113.948 3.88032C115.439 3.16074 117.112 2.91014 118.748 3.16127C120.384 3.41245 121.906 4.15389 123.112 5.28757Z" fill="#4271FF" stroke="black" stroke-width="6.13238"/>
</svg>
