<svg width="98" height="169" viewBox="0 0 98 169" fill="none" xmlns="http://www.w3.org/2000/svg">
<path d="M62.454 1.99995C80.3182 22.0669 117.905 59.9278 76.2649 82.1623C65.0956 88.1264 54.0852 92.4025 43.1567 85.2603C34.3192 79.4847 43.6361 69.199 53.0439 70.0281C65.159 71.0957 74.6314 76.0662 83.3307 85.8568C90.8221 94.288 95.5647 100.849 94.7532 112.252C93.3502 131.966 75.0104 142.182 55.065 148.105C39.8405 152.627 29.8331 155.392 16.9521 155.266C14.8612 155.246 1.65914 154.595 2.09633 154.805C9.82457 158.527 22.0126 162.037 30.4492 164.435C33.1235 165.244 35.0311 165.977 37.2118 166.609C38.8023 167.07 34.2135 165.582 33.1235 165.244C23.7735 162.342 12.6387 159.136 3.60163 155.503C-2.06173 153.226 8.76355 146.167 13.2785 143.888C20.5296 140.227 26.8232 137.05 31.4777 133.815" stroke="white" stroke-width="4" stroke-linecap="round"/>
</svg>
