<svg width="337" height="337" viewBox="0 0 337 337" fill="none" xmlns="http://www.w3.org/2000/svg">
<circle cx="121.32" cy="121.32" r="48.2016" fill="#D8FF40" stroke="black" stroke-width="4.69686"/>
<path d="M123.623 85.2922C128.872 101.251 141.389 113.767 157.348 119.016L164.352 121.32L157.348 123.623C141.389 128.872 128.872 141.389 123.623 157.348L121.32 164.352L119.016 157.348C113.768 141.389 101.251 128.872 85.2924 123.623L78.2865 121.32L85.2924 119.016C101.251 113.767 113.767 101.251 119.016 85.2922L121.32 78.2864L123.623 85.2922Z" fill="#3366FF" stroke="black" stroke-width="4.69686"/>
<circle cx="121.32" cy="215.68" r="48.2016" fill="#3366FF" stroke="black" stroke-width="4.69686"/>
<circle cx="215.68" cy="121.32" r="48.2016" fill="#3366FF" stroke="black" stroke-width="4.69686"/>
<circle cx="215.68" cy="215.68" r="48.2016" fill="black" stroke="black" stroke-width="4.69686"/>
<path d="M217.983 179.653C223.232 195.611 235.749 208.128 251.708 213.376L258.712 215.68L251.708 217.984C235.749 223.232 223.232 235.75 217.983 251.708L215.68 258.712L213.376 251.708C208.127 235.75 195.611 223.232 179.652 217.984L172.646 215.68L179.652 213.376C195.611 208.128 208.127 195.611 213.376 179.653L215.68 172.647L217.983 179.653Z" fill="#D8FF40" stroke="black" stroke-width="4.69686"/>
</svg>
