<svg width="248" height="248" viewBox="0 0 248 248" fill="none" xmlns="http://www.w3.org/2000/svg">
<path d="M123.524 6.31738C123.674 5.85701 124.326 5.85699 124.476 6.31738L149.964 84.7637C150.432 86.2057 151.777 87.1816 153.293 87.1816H235.775C236.26 87.1816 236.461 87.8012 236.069 88.0859L169.34 136.568C168.113 137.46 167.6 139.039 168.068 140.481L193.557 218.928C193.706 219.388 193.179 219.771 192.787 219.486L126.058 171.004C124.831 170.113 123.169 170.113 121.942 171.004L55.2129 219.486C54.8211 219.771 54.2939 219.388 54.4434 218.928L79.9316 140.481C80.4001 139.039 79.8868 137.46 78.6602 136.568L11.9307 88.0859C11.5389 87.8012 11.7403 87.1816 12.2246 87.1816H94.707C96.2233 87.1816 97.5675 86.2057 98.0361 84.7637L123.524 6.31738Z" fill="#FFD700"/>
</svg>
