<svg width="67" height="67" viewBox="0 0 67 67" fill="none" xmlns="http://www.w3.org/2000/svg">
<g filter="url(#filter0_d_128_197)">
<path d="M4.57971 45.4312C4.14355 44.6846 3.94566 43.8225 4.01247 42.9604C4.07928 42.0983 4.40762 41.277 4.95361 40.6065L16.8902 25.8478C17.1304 25.5498 17.3056 25.2049 17.4047 24.8352C17.5038 24.4655 17.5245 24.0791 17.4655 23.701L14.5093 4.94428C14.374 4.09025 14.5008 3.21526 14.873 2.4348C15.2453 1.65434 15.8454 1.00509 16.5942 0.572753C17.3431 0.140411 18.2054 -0.0546998 19.0674 0.0131661C19.9294 0.081032 20.7506 0.408687 21.4226 0.952887L36.1812 12.8895C36.4792 13.1297 36.8242 13.3049 37.1939 13.404C37.5636 13.503 37.9499 13.5237 38.3281 13.4647L57.0848 10.5085C57.9388 10.3732 58.8138 10.5001 59.5942 10.8723C60.3747 11.2445 61.024 11.8447 61.4563 12.5935C61.8886 13.3423 62.0838 14.2047 62.0159 15.0667C61.948 15.9287 61.6204 16.7499 61.0762 17.4218L49.1396 32.1805C48.8994 32.4785 48.7241 32.8234 48.6251 33.1931C48.526 33.5629 48.5053 33.9492 48.5643 34.3274L51.5022 52.9702C51.6526 53.8535 51.5271 54.7617 51.1429 55.5711C50.7587 56.3805 50.1344 57.0519 49.3549 57.4938C48.6126 57.9073 47.7633 58.0885 46.9168 58.0139C46.0704 57.9393 45.2658 57.6124 44.6072 57.0754L29.8485 45.1388C29.5505 44.8987 29.2056 44.7234 28.8359 44.6243C28.4662 44.5253 28.0799 44.5046 27.7017 44.5636L8.94501 47.5198C8.09129 47.6573 7.21592 47.5311 6.43588 47.1579C5.65584 46.7847 5.00827 46.1823 4.57971 45.4312Z" fill="#C6F806"/>
</g>
<defs>
<filter id="filter0_d_128_197" x="0" y="0" width="66.0293" height="66.0303" filterUnits="userSpaceOnUse" color-interpolation-filters="sRGB">
<feFlood flood-opacity="0" result="BackgroundImageFix"/>
<feColorMatrix in="SourceAlpha" type="matrix" values="0 0 0 0 0 0 0 0 0 0 0 0 0 0 0 0 0 0 127 0" result="hardAlpha"/>
<feOffset dy="4"/>
<feGaussianBlur stdDeviation="2"/>
<feComposite in2="hardAlpha" operator="out"/>
<feColorMatrix type="matrix" values="0 0 0 0 0 0 0 0 0 0 0 0 0 0 0 0 0 0 0.25 0"/>
<feBlend mode="normal" in2="BackgroundImageFix" result="effect1_dropShadow_128_197"/>
<feBlend mode="normal" in="SourceGraphic" in2="effect1_dropShadow_128_197" result="shape"/>
</filter>
</defs>
</svg>
