<svg width="59" height="59" viewBox="0 0 59 59" fill="none" xmlns="http://www.w3.org/2000/svg">
<path d="M0.57971 45.4312C0.14355 44.6846 -0.0543439 43.8225 0.0124691 42.9604C0.0792821 42.0983 0.407618 41.277 0.953608 40.6065L12.8902 25.8478C13.1304 25.5498 13.3056 25.2049 13.4047 24.8352C13.5038 24.4655 13.5245 24.0791 13.4655 23.701L10.5093 4.94428C10.374 4.09025 10.5008 3.21526 10.873 2.4348C11.2453 1.65434 11.8454 1.00509 12.5942 0.572753C13.3431 0.140411 14.2054 -0.0546998 15.0674 0.0131661C15.9294 0.081032 16.7506 0.408687 17.4226 0.952887L32.1812 12.8895C32.4792 13.1297 32.8242 13.3049 33.1939 13.404C33.5636 13.503 33.9499 13.5237 34.3281 13.4647L53.0848 10.5085C53.9388 10.3732 54.8138 10.5001 55.5942 10.8723C56.3747 11.2445 57.024 11.8447 57.4563 12.5935C57.8886 13.3423 58.0838 14.2047 58.0159 15.0667C57.948 15.9287 57.6204 16.7499 57.0762 17.4218L45.1396 32.1805C44.8994 32.4785 44.7241 32.8234 44.6251 33.1931C44.526 33.5629 44.5053 33.9492 44.5643 34.3274L47.5022 52.9702C47.6526 53.8535 47.5271 54.7617 47.1429 55.5711C46.7587 56.3805 46.1344 57.0519 45.3549 57.4938C44.6126 57.9073 43.7633 58.0885 42.9168 58.0139C42.0704 57.9393 41.2658 57.6124 40.6072 57.0754L25.8485 45.1388C25.5505 44.8987 25.2056 44.7234 24.8359 44.6243C24.4662 44.5253 24.0799 44.5046 23.7017 44.5636L4.94501 47.5198C4.09129 47.6573 3.21592 47.5311 2.43588 47.1579C1.65584 46.7847 1.00827 46.1823 0.57971 45.4312Z" fill="#C6F806"/>
</svg>
