<svg width="190" height="190" viewBox="-5 -5 110 112" fill="none" xmlns="http://www.w3.org/2000/svg">
  <defs>
    <filter id="dropshadow" x="-50%" y="-50%" width="200%" height="200%">
      <feDropShadow dx="12" dy="12" stdDeviation="0" flood-color="black" flood-opacity="1"/>
    </filter>
  </defs>
  <path d="M39.9893 4.05705C46.1811 -2.9466 57.6491 -0.493956 60.4346 8.42967L63.7868 19.1692C64.826 22.4983 67.262 25.2106 70.4607 26.6001L80.7798 31.0825C89.354 34.807 90.5652 46.4716 82.9391 51.8783L73.7611 58.3852C70.9161 60.4023 69.0893 63.5572 68.7563 67.0287L67.682 78.2279C66.7894 87.5334 56.0699 92.2899 48.5713 86.7078L39.5467 79.9898C36.7492 77.9073 33.1842 77.1448 29.7796 77.9009L18.7966 80.3399C9.67069 82.3665 1.83454 73.6416 4.82623 64.7849L8.42673 54.1261C9.54281 50.822 9.1663 47.1958 7.39519 44.1915L1.68161 34.4998C-3.06589 26.4468 2.81052 16.298 12.1581 16.4064L23.408 16.5369C26.8952 16.5773 30.2275 15.0987 32.5375 12.4859L39.9893 4.05705Z" fill="#C6F806" stroke="black" stroke-width="4" filter="url(#dropshadow)"/>
</svg>