<svg width="77" height="56" viewBox="0 0 77 56" fill="none" xmlns="http://www.w3.org/2000/svg">
<path d="M47.7538 8.89236C27.1014 -2.60429 6.56255 -3.12999 1.30578 8.34788C-1.4191 14.2933 0.170414 22.1538 5.60884 29.9518C3.60491 25.4082 3.19618 21.1212 4.78569 17.654C9.26475 7.8785 27.8961 8.29781 46.4027 18.5991L46.4708 18.6366V55.4547H57.9891V26.5535C69.1498 35.941 75.0651 47.106 71.9428 54.6223C73.538 53.3706 74.3215 51.8248 75.1673 49.9786C80.4241 38.5007 68.4118 20.389 47.7538 8.89236Z" fill="white"/>
<path d="M39.1647 30.8779V21.6968L27.652 17.8354V30.8779H39.1647Z" fill="#3366FF"/>
<path d="M39.1647 34.8022H27.652V55.5487H39.1647V34.8022Z" fill="#3366FF"/>
<path d="M21.6743 44.8408C11.9158 37.8064 6.90881 27.3799 10.2696 20.1515C11.473 17.5542 13.6132 15.6892 16.3607 14.5752C12.2962 15.1573 9.19658 16.991 7.77169 20.0701C4.59834 26.9105 10.718 37.4747 21.6743 44.9347V44.8408Z" fill="white"/>
</svg>
