<svg width="108" height="108" viewBox="0 0 108 108" fill="none" xmlns="http://www.w3.org/2000/svg">
<g clip-path="url(#clip0_23_248)">
<mask id="mask0_23_248" style="mask-type:luminance" maskUnits="userSpaceOnUse" x="0" y="0" width="108" height="108">
<path d="M108 0H0V108H108V0Z" fill="white"/>
</mask>
<g mask="url(#mask0_23_248)">
<path d="M54 2C54.6427 2 55.4886 2.33649 56.4912 3.45605C57.4927 4.57445 58.4862 6.3059 59.3613 8.61621C61.1063 13.2231 62.2275 19.7224 62.2275 27C62.2275 34.8659 60.9185 41.8081 58.9375 46.4375L56.9736 51.0264L61.5625 49.0625C66.1921 47.0815 73.1344 45.7725 81 45.7725C88.2775 45.7725 94.7769 46.8936 99.3838 48.6387C101.694 49.5138 103.426 50.5072 104.544 51.5088C105.664 52.5114 106 53.3573 106 54C106 54.6427 105.664 55.4886 104.544 56.4912C103.426 57.4927 101.694 58.4862 99.3838 59.3613C94.7769 61.1063 88.2775 62.2275 81 62.2275C73.1344 62.2275 66.1921 60.9185 61.5625 58.9375L56.9736 56.9736L58.9375 61.5625C60.9185 66.1921 62.2275 73.1344 62.2275 81C62.2275 88.2775 61.1063 94.7769 59.3613 99.3838C58.4862 101.694 57.4927 103.426 56.4912 104.544C55.4886 105.664 54.6427 106 54 106C53.3573 106 52.5114 105.664 51.5088 104.544C50.5072 103.426 49.5138 101.694 48.6387 99.3838C46.8936 94.7769 45.7725 88.2775 45.7725 81C45.7725 73.1344 47.0815 66.1921 49.0625 61.5625L51.0264 56.9736L46.4375 58.9375C41.8081 60.9185 34.8659 62.2275 27 62.2275C19.7224 62.2275 13.2231 61.1063 8.61621 59.3613C6.3059 58.4862 4.57445 57.4927 3.45605 56.4912C2.33649 55.4886 2 54.6427 2 54C2 53.3573 2.33648 52.5114 3.45605 51.5088C4.57445 50.5072 6.30592 49.5138 8.61621 48.6387C13.2231 46.8936 19.7225 45.7725 27 45.7725C34.8659 45.7725 41.8081 47.0815 46.4375 49.0625L51.0264 51.0264L49.0625 46.4375C47.0815 41.8081 45.7725 34.8659 45.7725 27C45.7725 19.7225 46.8936 13.2231 48.6387 8.61621C49.5138 6.30592 50.5072 4.57445 51.5088 3.45605C52.5114 2.33648 53.3573 2 54 2Z" fill="#D8FF40" stroke="black" stroke-width="4"/>
</g>
</g>
<defs>
<clipPath id="clip0_23_248">
<rect width="108" height="108" fill="white"/>
</clipPath>
</defs>
</svg>
