<svg width="35" height="64" viewBox="0 0 35 64" fill="none" xmlns="http://www.w3.org/2000/svg">
<g clip-path="url(#clip0_289_649)">
<path d="M17.5223 33.0315C26.1457 33.0286 33.1307 25.63 33.1279 16.5099C33.1251 7.38677 26.1318 -0.00294206 17.5111 8.78708e-07C8.89049 0.00294381 1.90273 7.40148 1.90551 16.5216C1.91664 25.6389 8.9044 33.0256 17.5223 33.0315ZM17.5223 9.68226C21.094 9.68226 23.9898 12.7459 23.9898 16.5246C23.9898 20.3033 21.094 23.364 17.5223 23.364C13.9505 23.364 11.0547 20.3004 11.0547 16.5216C11.0603 12.7459 13.9533 9.6852 17.5223 9.68226ZM23.8341 46.5072C27.047 45.7362 30.1125 44.3912 32.9026 42.5342C35.0278 41.0834 35.6398 38.0875 34.2684 35.8391C32.9193 33.626 30.1431 32.9579 28.0234 34.3382C21.5948 38.5907 13.4331 38.5907 7.00446 34.3382C4.87086 32.9226 2.05295 33.5995 0.70936 35.8538C-0.639789 38.111 -0.00555 41.101 2.13084 42.5284C2.13362 42.5284 2.1364 42.5313 2.1364 42.5313C4.92371 44.3853 7.98921 45.7303 11.1993 46.5043L2.47021 55.7392C0.731614 57.6815 0.812285 60.7481 2.65102 62.5874C4.41744 64.3532 7.17693 64.3532 8.94335 62.5874L17.5167 53.5114L26.0956 62.5874C27.8815 64.4738 30.7718 64.4738 32.5576 62.5874C34.3407 60.698 34.3407 57.6403 32.5576 55.751L23.8341 46.5072Z" fill="white"/>
</g>
<defs>
<clipPath id="clip0_289_649">
<rect width="35" height="64" fill="white"/>
</clipPath>
</defs>
</svg>
