<svg width="79" height="79" viewBox="0 0 79 79" fill="none" xmlns="http://www.w3.org/2000/svg">
<path d="M38.9373 40.6384C38.279 40.4738 37.7441 40.3778 37.2229 40.1995C31.9562 38.4165 27.2656 35.55 22.8082 32.2858C22.287 31.9017 21.7932 31.4217 21.4641 30.8868C21.2858 30.5988 21.3132 30.0227 21.4915 29.6936C21.6286 29.4467 22.1635 29.2684 22.4653 29.3233C23.0413 29.4193 23.6311 29.625 24.1523 29.913C27.5948 31.8057 31.0236 33.7121 34.4387 35.646C35.7142 36.3729 36.976 37.141 38.2378 37.8953C38.663 38.1422 39.0745 38.4165 39.4585 38.7045C39.8974 39.02 40.158 39.5 39.87 39.98C39.6779 40.2955 39.5408 40.6384 38.9373 40.6384Z" fill="black"/>
<path d="M59.3595 21.2175C59.2498 21.8758 59.1675 22.6439 59.0029 23.3845C58.3446 26.3059 57.6862 29.2272 57.0005 32.1349C56.8496 32.7658 56.589 33.383 56.2873 33.9453C55.8895 34.6996 55.3272 34.9602 54.71 34.8368C54.0928 34.7133 53.7088 34.2196 53.6951 33.3555C53.6814 32.7658 53.6951 32.1349 53.8323 31.5725C54.7649 27.8831 55.725 24.1937 56.6987 20.518C56.8085 20.1066 57.0005 19.6814 57.2748 19.3659C57.9468 18.5705 59.0029 18.8173 59.2635 19.8323C59.3595 20.23 59.3184 20.6826 59.3595 21.2175Z" fill="black"/>
<path d="M22.5887 59.7575C21.9441 59.7026 21.2995 59.5654 20.6686 59.4009C20.1062 59.25 19.7085 58.866 19.6536 58.2488C19.6125 57.7276 20.1337 57.1653 20.8194 57.083C21.7384 56.9733 22.671 56.8772 23.5899 56.9184C26.3604 57.0418 29.1446 57.2201 31.9151 57.4121C32.834 57.4807 33.753 57.6042 34.6719 57.755C34.9873 57.8099 35.3165 57.9196 35.5634 58.0979C36.2628 58.5779 36.208 59.4557 35.4536 59.7986C35.0285 59.9906 34.5073 60.0729 34.041 60.0729C32.5049 60.1415 24.8654 59.9358 22.5887 59.7575Z" fill="black"/>
</svg>
