<svg width="89" height="82" viewBox="0 0 89 82" fill="none" xmlns="http://www.w3.org/2000/svg">
<path d="M0.579836 67.3948C0.143676 66.6482 -0.0542167 65.7862 0.0125963 64.924C0.0794092 64.0619 0.407745 63.2407 0.953736 62.5701L12.8903 47.8114C13.1305 47.5134 13.3058 47.1685 13.4048 46.7988C13.5039 46.4291 13.5246 46.0428 13.4656 45.6646L10.5094 26.9079C10.3741 26.0539 10.5009 25.1789 10.8731 24.3984C11.2454 23.618 11.8455 22.9687 12.5944 22.5364C13.3432 22.104 14.2055 21.9089 15.0675 21.9768C15.9296 22.0447 16.7507 22.3723 17.4227 22.9165L32.1814 34.8531C32.4794 35.0933 32.8243 35.2685 33.194 35.3676C33.5637 35.4667 33.95 35.4874 34.3282 35.4284L53.0849 32.4722C53.9389 32.3369 54.8139 32.4637 55.5944 32.8359C56.3748 33.2082 57.0241 33.8083 57.4564 34.5571C57.8888 35.306 58.0839 36.1683 58.016 37.0303C57.9481 37.8923 57.6205 38.7135 57.0763 39.3855L45.1397 54.1441C44.8995 54.4421 44.7243 54.7871 44.6252 55.1568C44.5261 55.5265 44.5054 55.9128 44.5644 56.291L47.5023 74.9338C47.6527 75.8171 47.5272 76.7253 47.143 77.5347C46.7588 78.3441 46.1345 79.0155 45.3551 79.4574C44.6127 79.8709 43.7634 80.0521 42.9169 79.9775C42.0705 79.903 41.2659 79.576 40.6073 79.0391L25.8487 67.1025C25.5507 66.8623 25.2057 66.687 24.836 66.588C24.4663 66.4889 24.08 66.4682 23.7018 66.5272L4.94513 69.4834C4.09142 69.621 3.21605 69.4947 2.43601 69.1215C1.65596 68.7483 1.00839 68.1459 0.579836 67.3948ZM40.0807 20.893C39.8273 20.454 39.7128 19.9484 39.7523 19.443C39.7919 18.9376 39.9836 18.456 40.3023 18.0618L45.3534 11.8162C45.4641 11.6801 45.5449 11.5222 45.5903 11.3527C45.6357 11.1832 45.6448 11.006 45.6169 10.8328L44.3653 2.89844C44.2865 2.39769 44.3613 1.88481 44.5798 1.42739C44.7983 0.969975 45.1502 0.589473 45.5892 0.336015C46.0282 0.0825573 46.5337 -0.0319647 47.0391 0.00753756C47.5444 0.0470398 48.026 0.238712 48.4203 0.557304L54.6658 5.60838C54.8021 5.71885 54.9601 5.7994 55.1295 5.84481C55.2989 5.89021 55.476 5.89944 55.6493 5.8719L63.513 4.63144C63.9724 4.55228 64.4447 4.59982 64.8792 4.76894C65.3136 4.93806 65.6937 5.22237 65.9787 5.59131C66.3144 6.03796 66.4914 6.5839 66.4817 7.14257C66.4719 7.70123 66.2759 8.24065 65.9247 8.67528L60.8737 14.9208C60.7632 15.0571 60.6826 15.2151 60.6372 15.3845C60.5918 15.5539 60.5826 15.731 60.6101 15.9043L61.8617 23.8386C61.9405 24.3394 61.8657 24.8522 61.6473 25.3097C61.4288 25.7671 61.0769 26.1476 60.6378 26.401C60.1988 26.6545 59.6934 26.769 59.188 26.7295C58.6826 26.69 58.2011 26.4983 57.8068 26.1797L51.5612 21.1287C51.4251 21.0179 51.2672 20.9372 51.0977 20.8918C50.9282 20.8464 50.751 20.8373 50.5778 20.8651L42.6434 22.1167C42.1427 22.1956 41.6297 22.1209 41.1723 21.9024C40.7148 21.684 40.3342 21.332 40.0807 20.893ZM54.9105 73.9406C54.6341 73.4616 54.5094 72.9101 54.5527 72.3587C54.5961 71.8074 54.8055 71.2821 55.1534 70.8522L61.9931 62.3931C62.1137 62.2442 62.2016 62.0715 62.2512 61.8864C62.3008 61.7013 62.311 61.5078 62.281 61.3186L60.5872 50.5729C60.5014 50.0268 60.583 49.4676 60.8213 48.9688C61.0596 48.47 61.4434 48.0551 61.9221 47.7787C62.4009 47.5023 62.9521 47.3774 63.5032 47.4204C64.0543 47.4635 64.5794 47.6724 65.0095 48.0197L73.4685 54.8595C73.6175 54.98 73.7901 55.068 73.9752 55.1176C74.1603 55.1672 74.3538 55.1773 74.5431 55.1474L85.212 53.4643C85.7133 53.3792 86.2284 53.4316 86.7023 53.6159C87.1763 53.8002 87.5914 54.1095 87.9035 54.511C88.2696 54.9985 88.4624 55.5944 88.4512 56.204C88.4401 56.8136 88.2256 57.402 87.8419 57.8758L81.0022 66.3349C80.8816 66.4838 80.7937 66.6565 80.7441 66.8416C80.6945 67.0267 80.6843 67.2202 80.7143 67.4095L82.4081 78.1551C82.4939 78.7012 82.4123 79.2604 82.174 79.7592C81.9357 80.258 81.5519 80.6729 81.0732 80.9493C80.5944 81.2257 80.0432 81.3506 79.4921 81.3076C78.941 81.2645 78.4159 81.0556 77.9859 80.7083L69.5268 73.8685C69.3778 73.748 69.2052 73.66 69.0201 73.6104C68.835 73.5608 68.6415 73.5507 68.4522 73.5806L57.7066 75.2745C57.1603 75.3608 56.6007 75.2795 56.1016 75.0414C55.6024 74.8033 55.1871 74.4195 54.9105 73.9406Z" fill="#C6F806"/>
</svg>
