<svg width="370" height="389" viewBox="0 0 370 389" fill="none" xmlns="http://www.w3.org/2000/svg">
<g clip-path="url(#clip0_297_651)">
<path fill-rule="evenodd" clip-rule="evenodd" d="M316.082 56.5302C281.303 20.0958 235.05 0.0204785 185.773 0C84.2368 0 1.59933 86.4657 1.5587 192.746C1.54515 226.719 10.0281 259.882 26.1476 289.112L0.0141144 389L97.6685 362.196C124.574 377.551 154.868 385.644 185.699 385.658H185.775C287.3 385.658 369.945 299.181 369.986 192.9C370.005 141.395 350.862 92.9647 316.082 56.5302ZM185.775 353.102H185.712C158.238 353.091 131.291 345.368 107.784 330.77L102.192 327.298L44.2437 343.204L59.7116 284.083L56.0706 278.022C40.7442 252.513 32.649 223.03 32.6611 192.758C32.6947 104.422 101.38 32.5556 185.835 32.5556C226.73 32.5719 265.173 49.2588 294.081 79.5418C322.989 109.825 338.9 150.078 338.884 192.887C338.849 281.23 270.164 353.102 185.775 353.102ZM269.758 233.111C265.155 230.7 242.526 219.048 238.306 217.441C234.088 215.833 231.019 215.03 227.95 219.852C224.882 224.673 216.061 235.522 213.375 238.736C210.691 241.951 208.006 242.353 203.403 239.942C198.8 237.531 183.97 232.446 166.388 216.037C152.706 203.266 143.467 187.493 140.782 182.671C138.098 177.849 140.497 175.242 142.801 172.842C144.871 170.683 147.404 167.216 149.705 164.403C152.006 161.591 152.773 159.582 154.307 156.368C155.842 153.153 155.075 150.34 153.924 147.93C152.773 145.519 143.569 121.812 139.732 112.169C135.997 102.777 132.202 104.048 129.376 103.901C126.695 103.761 123.623 103.731 120.555 103.731C117.486 103.731 112.5 104.937 108.28 109.758C104.062 114.58 92.1714 126.232 92.1714 149.939C92.1714 173.645 108.664 196.547 110.966 199.762C113.267 202.977 143.422 251.626 189.595 272.488C200.577 277.45 209.15 280.413 215.835 282.634C226.862 286.299 236.896 285.782 244.827 284.542C253.67 283.16 272.059 272.89 275.895 261.64C279.731 250.389 279.731 240.746 278.58 238.737C277.43 236.728 274.361 235.522 269.758 233.111Z" fill="white"/>
</g>
<defs>
<clipPath id="clip0_297_651">
<rect width="370" height="389" fill="white"/>
</clipPath>
</defs>
</svg>
